<svg width="33" height="33" viewBox="0 0 33 33" fill="none" xmlns="http://www.w3.org/2000/svg">
<g clip-path="url(#clip0_118_40)">
<path fill-rule="evenodd" clip-rule="evenodd" d="M30.2154 2.84125H24.1297C23.4986 2.84125 22.9869 3.35293 22.9869 3.9841V31.4127C22.9869 32.0438 23.4986 32.5555 24.1297 32.5555H30.2154C30.8465 32.5555 31.3583 32.0438 31.3583 31.4127V3.9841C31.3583 3.35293 30.8465 2.84125 30.2154 2.84125ZM7.7285 18.8412H1.64286C1.01168 18.8412 0.5 19.3529 0.5 19.9841V31.4127C0.5 32.0438 1.01167 32.5555 1.64286 32.5555H7.7285C8.3597 32.5555 8.87136 32.0438 8.87136 31.4127V19.9841C8.87136 19.3529 8.3597 18.8412 7.7285 18.8412ZM12.8869 11.9841H18.9725C19.6037 11.9841 20.1154 12.4958 20.1154 13.127V31.4127C20.1154 32.0438 19.6037 32.5555 18.9725 32.5555H12.8869C12.2557 32.5555 11.744 32.0438 11.744 31.4127V13.127C11.744 12.4958 12.2557 11.9841 12.8869 11.9841Z" fill="black"/>
</g>
<defs>
<clipPath id="clip0_118_40">
<rect width="32" height="32" fill="white" transform="translate(0.5 0.555542)"/>
</clipPath>
</defs>
</svg>